<svg width="1890" height="1890" xmlns="http://www.w3.org/2000/svg" xmlns:xlink="http://www.w3.org/1999/xlink" overflow="hidden"><defs><filter id="fx0" x="-10%" y="-10%" width="120%" height="120%" filterUnits="userSpaceOnUse" primitiveUnits="userSpaceOnUse"><feComponentTransfer color-interpolation-filters="sRGB"><feFuncR type="discrete" tableValues="0 0"/><feFuncG type="discrete" tableValues="0 0"/><feFuncB type="discrete" tableValues="0 0"/><feFuncA type="linear" slope="0.301961" intercept="0"/></feComponentTransfer><feGaussianBlur stdDeviation="5.0779 5.07529"/></filter><clipPath id="clip1"><rect x="0" y="0" width="1890" height="1890"/></clipPath><linearGradient x1="1800.77" y1="1964.87" x2="89.2271" y2="-74.8704" gradientUnits="userSpaceOnUse" spreadMethod="reflect" id="fill2"><stop offset="0" stop-color="#C00000"/><stop offset="0.76" stop-color="#002060"/><stop offset="1" stop-color="#002060"/></linearGradient><clipPath id="clip3"><rect x="345.677" y="317.5" width="287.648" height="387"/></clipPath><clipPath id="clip4"><rect x="0" y="0" width="974" height="976"/></clipPath></defs><g clip-path="url(#clip1)"><rect x="0" y="0" width="1890" height="1890" fill="url(#fill2)"/><g clip-path="url(#clip3)" filter="url(#fx0)" transform="matrix(1.99897 0 0 2 -31 -31)"><g clip-path="url(#clip4)" transform="translate(1.77636e-15 0)"><path d="M426.955-182.443C426.955-150.469 420.999-122.413 409.087-98.2749 397.175-74.1372 381.031-53.9963 360.655-37.8523 340.279-21.7083 316.455-9.56103 289.182-1.41064 261.91 6.73975 232.756 10.8149 201.722 10.8149 180.719 10.8149 161.205 9.09082 143.18 5.64258 125.156 2.19434 109.247-1.95923 95.4536-6.81811 81.6606-11.677 70.1404-16.771 60.8928-22.1001 51.6453-27.4292 44.9839-32.1313 40.9087-36.2065 36.8335-40.2817 33.9338-46.1594 32.2097-53.8396 30.4856-61.5198 29.6235-72.5698 29.6235-86.9897 29.6235-96.7075 29.937-104.858 30.564-111.441 31.1909-118.024 32.2097-123.353 33.6204-127.428 35.031-131.503 36.9119-134.403 39.2629-136.127 41.614-137.851 44.3569-138.713 47.4917-138.713 51.8804-138.713 58.0715-136.127 66.0652-130.955 74.0588-125.782 84.3252-120.062 96.8643-113.792 109.403-107.522 124.372-101.802 141.77-96.6291 159.168-91.4568 179.309-88.8706 202.192-88.8706 217.239-88.8706 230.719-90.6731 242.631-94.2781 254.543-97.883 264.653-102.977 272.96-109.56 281.267-116.143 287.615-124.293 292.003-134.011 296.392-143.729 298.586-154.544 298.586-166.456 298.586-180.249 294.825-192.083 287.301-201.957 279.778-211.832 269.982-220.609 257.913-228.289 245.844-235.969 232.129-243.179 216.769-249.919 201.409-256.659 185.578-263.79 169.277-271.314 152.977-278.837 137.146-287.38 121.786-296.941 106.425-306.502 92.7107-317.944 80.6418-331.266 68.573-344.589 58.7769-360.341 51.2534-378.523 43.73-396.705 39.9683-418.491 39.9683-443.883 39.9683-473.036 45.3757-498.663 56.1907-520.763 67.0056-542.863 81.5823-561.201 99.9206-575.778 118.259-590.355 139.889-601.248 164.81-608.458 189.732-615.668 216.142-619.273 244.041-619.273 258.461-619.273 272.881-618.176 287.301-615.981 301.721-613.787 315.201-610.809 327.74-607.047 340.279-603.286 351.407-599.054 361.125-594.352 370.843-589.649 377.269-585.731 380.404-582.596 383.539-579.461 385.655-576.797 386.752-574.602 387.849-572.408 388.789-569.508 389.573-565.904 390.357-562.299 390.905-557.753 391.219-552.267 391.532-546.781 391.689-539.963 391.689-531.813 391.689-522.722 391.454-515.042 390.984-508.772 390.513-502.503 389.73-497.331 388.633-493.255 387.535-489.18 385.968-486.202 383.93-484.321 381.893-482.44 379.15-481.5 375.702-481.5 372.253-481.5 366.768-483.694 359.244-488.083 351.721-492.472 342.473-497.252 331.501-502.425 320.53-507.597 307.834-512.299 293.414-516.531 278.994-520.763 263.164-522.879 245.922-522.879 232.443-522.879 220.687-521.233 210.656-517.942 200.625-514.65 192.239-510.105 185.5-504.305 178.76-498.506 173.744-491.531 170.453-483.381 167.161-475.23 165.516-466.61 165.516-457.519 165.516-444.04 169.199-432.363 176.566-422.488 183.932-412.613 193.807-403.836 206.189-396.156 218.572-388.476 232.6-381.266 248.273-374.526 263.947-367.786 279.935-360.655 296.235-353.131 312.536-345.608 328.523-337.066 344.197-327.505 359.871-317.944 373.821-306.502 386.046-293.179 398.272-279.856 408.146-264.182 415.67-246.157 423.193-228.133 426.955-206.895 426.955-182.443Z" fill="#FFFFFF" transform="matrix(0.493768 0.0802735 -0.0803148 0.493514 352.357 642)"/></g></g><text fill="#FFFFFF" font-family="Calibri,Calibri_MSFontService,sans-serif" font-weight="700" font-size="963" transform="matrix(0.987028 0.160547 -0.160547 0.987028 678.241 1224)">S</text></g></svg>